<?xml version="1.0" encoding="utf-8"?>
<!-- Generator: Adobe Illustrator 23.0.1, SVG Export Plug-In . SVG Version: 6.00 Build 0)  -->
<svg version="1.1" id="Layer_1" xmlns="http://www.w3.org/2000/svg" xmlns:xlink="http://www.w3.org/1999/xlink" x="0px" y="0px"
	 width="273.3px" height="288px" viewBox="0 0 273.3 288" style="enable-background:new 0 0 273.3 288;" xml:space="preserve">
<path style="fill:none;stroke:#00049C;stroke-width:3;stroke-miterlimit:10;" d="M165.3,262.1l-24.4-96.5c-0.1-0.5,0.1,0-0.1-0.5
	c-2.9-11.5-19.5-153.1,58.4-153.1c76.7,0,64.5,144.1,62.9,151.5c-0.1,0.6,0.1,0-0.1,0.6l-23.2,97.9c-2.8,11.8-13.3,20.1-25.4,20.1
	h-22.5C178.8,282,168.2,273.8,165.3,262.1z"/>
<path style="fill:none;stroke:#00049C;stroke-width:3;stroke-miterlimit:10;" d="M143.7,177.1c0,0,29.7-61.7,119.8-55.1"/>
<path style="fill:none;stroke:#00049C;stroke-width:3;stroke-miterlimit:10;" d="M201.8,86c12.3,0,22.2-18.1,22.2-30.4
	c0-12.3-9.9-22.2-22.2-22.2c-12.3,0-22.2,9.9-22.2,22.2C179.6,67.9,189.5,86,201.8,86z"/>
<path style="fill:none;stroke:#00049C;stroke-width:3;stroke-miterlimit:10;" d="M239.8,121.5l-0.1-12.7c0-9.6-7.8-17.4-17.4-17.4
	h-40.7c-9.6,0-17.4,7.8-17.4,17.4V150"/>
<path style="fill:none;stroke:#00049C;stroke-width:3;stroke-miterlimit:10;" d="M151.9,211.7c16.9-14.3,50.5-37.9,111.4-50.1"/>
<path style="fill:none;stroke:#00049C;stroke-width:3;stroke-miterlimit:10;" d="M160.6,241.8c14.4-11.3,42.5-29.1,89.7-31.1"/>
<path style="fill:none;stroke:#00049C;stroke-width:3;stroke-miterlimit:10;" d="M166.3,266.7c13.2-8.8,38.1-21.8,74.2-16.3"/>
<path style="fill:none;stroke:#00049C;stroke-width:3;stroke-miterlimit:10;" d="M34.3,262.1L9.9,165.6c-0.1-0.5,0.1,0-0.1-0.5
	C6.9,153.5-9.7,11.9,68.1,11.9c76.7,0,64.5,144.1,62.9,151.5c-0.1,0.6,0.1,0-0.1,0.6l-23.2,97.9C105,273.7,94.5,282,82.4,282H59.9
	C47.8,282,37.2,273.8,34.3,262.1z"/>
<path style="fill:none;stroke:#00049C;stroke-width:3;stroke-miterlimit:10;" d="M12.7,177.1c0,0,29.7-61.7,119.8-55.1"/>
<path style="fill:none;stroke:#00049C;stroke-width:3;stroke-miterlimit:10;" d="M70.8,86C83.1,86,93,67.9,93,55.6
	c0-12.3-9.9-22.2-22.2-22.2s-22.2,9.9-22.2,22.2C48.6,67.9,58.5,86,70.8,86z"/>
<path style="fill:none;stroke:#00049C;stroke-width:3;stroke-miterlimit:10;" d="M108.8,121.5l-0.1-12.7c0-9.6-7.8-17.4-17.4-17.4
	H50.6c-9.6,0-17.4,7.8-17.4,17.4V150"/>
<path style="fill:none;stroke:#00049C;stroke-width:3;stroke-miterlimit:10;" d="M20.9,211.7c16.9-14.3,50.5-37.9,111.4-50.1"/>
<path style="fill:none;stroke:#00049C;stroke-width:3;stroke-miterlimit:10;" d="M29.6,241.8c14.4-11.3,42.5-29.1,89.7-31.1"/>
<path style="fill:none;stroke:#00049C;stroke-width:3;stroke-miterlimit:10;" d="M35.3,266.7c13.2-8.8,38.1-21.8,74.2-16.3"/>
</svg>
